<svg version="1.1" xmlns="http://www.w3.org/2000/svg" xmlns:xlink="http://www.w3.org/1999/xlink" viewBox="0,0,256,256" width="16px" height="16px"><g transform="translate(-8.96,-8.96) scale(1.07,1.07)"><g fill="#000000" fill-rule="nonzero" stroke="none" stroke-width="1" stroke-linecap="butt" stroke-linejoin="miter" stroke-miterlimit="10" stroke-dasharray="" stroke-dashoffset="0" font-family="none" font-weight="none" font-size="none" text-anchor="none" style="mix-blend-mode: normal; --darkreader-inline-fill: var(--darkreader-background-ffffff, #181a1b); --darkreader-inline-stroke: none;" data-darkreader-inline-fill="" data-darkreader-inline-stroke=""><g transform="translate(0,-2.66558) scale(5.33333,5.33333)"><path d="M24.04883,2c-0.38678,-0.01207 -0.76326,0.12579 -1.05078,0.38477c0,0 -7.50788,6.61523 -16.49805,6.61523c-0.82839,0.00008 -1.49992,0.67161 -1.5,1.5v12.25977c0,6.67805 3.08941,17.66664 18.41797,24.12305c0.3722,0.15668 0.79186,0.15668 1.16406,0c15.32856,-6.45641 18.41797,-17.445 18.41797,-24.12305v-12.25977c-0.00008,-0.82839 -0.67161,-1.49992 -1.5,-1.5c-8.99017,0 -16.49805,-6.61523 -16.49805,-6.61523c-0.26249,-0.23649 -0.60002,-0.37275 -0.95312,-0.38477zM24,5.42773c2.06297,1.65863 8.11126,5.90945 16,6.44727v10.88477c0,5.74226 -2.20656,15.00592 -16,21.06641c-13.79344,-6.06049 -16,-15.32415 -16,-21.06641v-10.88477c7.88874,-0.53781 13.93703,-4.78863 16,-6.44727zM30.48633,15.97852c-0.39614,0.00935 -0.77249,0.17506 -1.04687,0.46094l-5.43945,5.43945l-5.43945,-5.43945c-0.28248,-0.2909 -0.67069,-0.45506 -1.07617,-0.45508c-0.61065,0.00015 -1.16026,0.37042 -1.38978,0.93629c-0.22952,0.56587 -0.09314,1.21439 0.34486,1.63988l5.43945,5.43945l-5.43945,5.43945c-0.39185,0.37623 -0.54969,0.9349 -0.41265,1.46055c0.13704,0.52565 0.54754,0.93616 1.07319,1.07319c0.52565,0.13704 1.08432,-0.0208 1.46055,-0.41265l5.43945,-5.43945l5.43945,5.43945c0.37623,0.39185 0.9349,0.54969 1.46055,0.41265c0.52565,-0.13704 0.93616,-0.54754 1.07319,-1.07319c0.13704,-0.52565 -0.0208,-1.08432 -0.41265,-1.46055l-5.43945,-5.43945l5.43945,-5.43945c0.44646,-0.42851 0.58398,-1.08719 0.34628,-1.65854c-0.2377,-0.57135 -0.80184,-0.93811 -1.4205,-0.92349z"></path></g></g></g></svg>