<svg version="1.1" xmlns="http://www.w3.org/2000/svg" xmlns:xlink="http://www.w3.org/1999/xlink" viewBox="0,0,256,256" width="16px" height="16px"><g transform="translate(-8.96,-8.96) scale(1.07,1.07)"><g fill="#ffffff" fill-rule="nonzero" stroke="none" stroke-width="1" stroke-linecap="butt" stroke-linejoin="miter" stroke-miterlimit="10" stroke-dasharray="" stroke-dashoffset="0" font-family="none" font-weight="none" font-size="none" text-anchor="none" style="mix-blend-mode: normal; --darkreader-inline-fill: var(--darkreader-background-ffffff, #181a1b); --darkreader-inline-stroke: none;" data-darkreader-inline-fill="" data-darkreader-inline-stroke=""><g transform="translate(0,-2.66558) scale(5.33333,5.33333)"><path d="M24.04883,2c-0.38678,-0.01207 -0.76326,0.12579 -1.05078,0.38477c0,0 -7.50788,6.61523 -16.49805,6.61523c-0.82839,0.00008 -1.49992,0.67161 -1.5,1.5v12.25977c0,6.67805 3.08941,17.66664 18.41797,24.12305c0.3722,0.15668 0.79186,0.15668 1.16406,0c15.32856,-6.45641 18.41797,-17.445 18.41797,-24.12305v-12.25977c-0.00008,-0.82839 -0.67161,-1.49992 -1.5,-1.5c-8.99017,0 -16.49805,-6.61523 -16.49805,-6.61523c-0.26249,-0.23649 -0.60002,-0.37275 -0.95312,-0.38477zM24,5.42773c2.06297,1.65863 8.11126,5.90945 16,6.44727v10.88477c0,5.74226 -2.20656,15.00592 -16,21.06641c-13.79344,-6.06049 -16,-15.32415 -16,-21.06641v-10.88477c7.88874,-0.53781 13.93703,-4.78863 16,-6.44727zM31.4707,17.98633c-0.38956,0.01135 -0.75941,0.17386 -1.03125,0.45313l-8.93945,8.93945l-3.93945,-3.93945c-0.37623,-0.39185 -0.9349,-0.54969 -1.46055,-0.41265c-0.52565,0.13704 -0.93616,0.54754 -1.07319,1.07319c-0.13704,0.52565 0.0208,1.08432 0.41265,1.46055l5,5c0.58579,0.58555 1.5353,0.58555 2.12109,0l10,-10c0.4429,-0.43135 0.57582,-1.09023 0.33479,-1.65955c-0.24103,-0.56932 -0.80665,-0.93247 -1.42463,-0.91467z"></path></g></g></g></svg>