<svg xmlns="http://www.w3.org/2000/svg" xmlns:xlink="http://www.w3.org/1999/xlink" viewBox="0,0,256,256" width="48px" height="48px" fill-rule="nonzero"><defs><linearGradient x1="24" y1="15.647" x2="24" y2="-0.296" gradientUnits="userSpaceOnUse" id="color-1"><stop offset="0" stop-color="#92a3b0"></stop><stop offset="0.015" stop-color="#a3b5c4"></stop><stop offset="0.032" stop-color="#aec2d1"></stop><stop offset="0.046" stop-color="#b2c6d6"></stop></linearGradient><linearGradient x1="24" y1="35.373" x2="24" y2="27.155" gradientUnits="userSpaceOnUse" id="color-2"><stop offset="0" stop-color="#4b4b4b"></stop><stop offset="1" stop-color="#3b3b3b"></stop></linearGradient></defs><g fill="none" fill-rule="nonzero" stroke="none" stroke-width="1" stroke-linecap="butt" stroke-linejoin="miter" stroke-miterlimit="10" stroke-dasharray="" stroke-dashoffset="0" font-family="none" font-weight="none" font-size="none" text-anchor="none" style="mix-blend-mode: normal"><g transform="translate(0,10.66667) scale(5.33333,5.33333)"><path d="M44,37h-40v5c0,1.105 0.895,2 2,2h36c1.105,0 2,-0.895 2,-2z" fill="#c48c00"></path><path d="M11,13v3h4v-3c0,-4.971 4.029,-9 9,-9v0c4.971,0 9,4.029 9,9v3h4v-3c0,-7.18 -5.82,-13 -13,-13v0c-7.18,0 -13,5.82 -13,13z" fill="url(#color-1)"></path><path d="M44,23h-40v-5c0,-1.105 0.895,-2 2,-2h36c1.105,0 2,0.895 2,2z" fill="#fad500"></path><rect x="4" y="23" width="40" height="7" fill="#edbe00"></rect><rect x="4" y="30" width="40" height="7" fill="#e3a600"></rect><path d="M27,29c0,-1.657 -1.343,-3 -3,-3c-1.657,0 -3,1.343 -3,3c0,1.304 0.837,2.403 2,2.816v3.184c0,0.552 0.448,1 1,1c0.552,0 1,-0.448 1,-1v-3.184c1.163,-0.413 2,-1.512 2,-2.816z" fill="url(#color-2)"></path></g></g></svg>