<svg fill="none" xmlns="http://www.w3.org/2000/svg" viewBox="3.98 3 16.02 18"><path d="M5.746 3a1.75 1.75 0 0 0-1.75 1.75v14.5c0 .966.784 1.75 1.75 1.75h3.5a1.75 1.75 0 0 0 1.75-1.75V4.75A1.75 1.75 0 0 0 9.246 3h-3.5Zm-.25 1.75a.25.25 0 0 1 .25-.25h3.5a.25.25 0 0 1 .25.25v14.5a.25.25 0 0 1-.25.25h-3.5a.25.25 0 0 1-.25-.25V4.75ZM14.746 3a1.75 1.75 0 0 0-1.75 1.75v14.5c0 .966.784 1.75 1.75 1.75h3.5a1.75 1.75 0 0 0 1.75-1.75V4.75A1.75 1.75 0 0 0 18.246 3h-3.5Zm-.25 1.75a.25.25 0 0 1 .25-.25h3.5a.25.25 0 0 1 .25.25v14.5a.25.25 0 0 1-.25.25h-3.5a.25.25 0 0 1-.25-.25V4.75Z" fill="#ffffff"/></svg>